HIERARCHY
ROOT Hips
{
	OFFSET 0.0000 0.0000 0.0000
	CHANNELS 6 Xposition Yposition Zposition Zrotation Xrotation Yrotation
	JOINT Ab
	{
		OFFSET -0.0000 8.0846 -0.0000
		CHANNELS 3 Zrotation Xrotation Yrotation
		JOINT Chest
		{
			OFFSET -0.0000 25.0068 -0.0000
			CHANNELS 3 Zrotation Xrotation Yrotation
			JOINT Neck
			{
				OFFSET -0.0000 25.0068 0.0000
				CHANNELS 3 Zrotation Xrotation Yrotation
				JOINT Head
				{
					OFFSET -0.0000 10.7556 0.0000
					CHANNELS 3 Zrotation Xrotation Yrotation
					End Site
					{
						OFFSET -0.0000 16.6222 0.0000
					}
				}
			}
			JOINT LeftCollar
			{
				OFFSET -0.0000 25.0068 0.0000
				CHANNELS 3 Zrotation Xrotation Yrotation
				JOINT LeftShoulder
				{
					OFFSET 19.5556 -0.0000 0.0000
					CHANNELS 3 Zrotation Xrotation Yrotation
					JOINT LeftElbow
					{
						OFFSET 27.1828 0.0000 0.0000
						CHANNELS 3 Zrotation Xrotation Yrotation
						JOINT LeftWrist
						{
							OFFSET 23.3157 0.0000 0.0000
							CHANNELS 3 Zrotation Xrotation Yrotation
							End Site
							{
								OFFSET 0.0000 -14.6667 0.0000
							}
						}
					}
				}
			}
			JOINT RightCollar
			{
				OFFSET -0.0000 25.0068 0.0000
				CHANNELS 3 Zrotation Xrotation Yrotation
				JOINT RightShoulder
				{
					OFFSET -19.5556 0.0000 0.0000
					CHANNELS 3 Zrotation Xrotation Yrotation
					JOINT RightElbow
					{
						OFFSET -27.1828 0.0000 0.0000
						CHANNELS 3 Zrotation Xrotation Yrotation
						JOINT RightWrist
						{
							OFFSET -23.3157 0.0000 0.0000
							CHANNELS 3 Zrotation Xrotation Yrotation
							End Site
							{
								OFFSET -0.0000 -14.6667 0.0000
							}
						}
					}
				}
			}
		}
	}
	JOINT LeftHip
	{
		OFFSET 11.7333 0.0000 0.0000
		CHANNELS 3 Zrotation Xrotation Yrotation
		JOINT LeftKnee
		{
			OFFSET -0.0000 -40.8688 0.0000
			CHANNELS 3 Zrotation Xrotation Yrotation
			JOINT LeftAnkle
			{
				OFFSET -0.0000 -44.4337 0.0000
				CHANNELS 3 Zrotation Xrotation Yrotation
				End Site
				{
					OFFSET -0.0000 -4.8889 16.6222
				}
			}
		}
	}
	JOINT RightHip
	{
		OFFSET -11.7333 0.0000 0.0000
		CHANNELS 3 Zrotation Xrotation Yrotation
		JOINT RightKnee
		{
			OFFSET -0.0000 -40.8688 0.0000
			CHANNELS 3 Zrotation Xrotation Yrotation
			JOINT RightAnkle
			{
				OFFSET -0.0000 -44.4337 0.0000
				CHANNELS 3 Zrotation Xrotation Yrotation
				End Site
				{
					OFFSET -0.0000 -4.8889 16.6222
				}
			}
		}
	}
}
MOTION
Frames: 18
Frame Time: 0.010000
3.2034 82.8827 104.4427 1.9573 355.7855 171.4854 2.6210 6.2323 3.9915 353.1343 10.3651 4.7573 3.0451 334.8960 1.7008 358.1903 358.0071 0.9781 341.4813 357.9767 11.9364 296.5964 12.8397 9.9251 16.4920 354.4737 323.5532 83.9226 359.3732 337.4967 20.0589 359.4662 357.0301 18.6529 45.9114 51.2674 328.0983 347.8537 41.0555 272.1214 349.4905 11.5795 8.0509 325.0927 357.0926 355.1016 16.8952 6.4661 355.8482 350.3274 23.7775 2.0309 5.4121 359.9988 358.4579 26.5542 16.8226 355.7640 332.9782 337.2845 
3.0444 82.6688 102.9776 1.7790 355.4978 170.9598 2.2677 5.7300 4.3193 353.1185 10.2785 5.0517 2.8203 334.8192 1.5055 358.5321 358.1827 0.8370 341.3153 358.0236 11.5722 296.3523 11.3202 10.1429 15.8319 354.8895 324.3198 84.0941 359.3278 336.5939 20.0773 359.4683 356.9151 18.7427 45.7811 50.9470 328.2799 348.0026 40.7338 272.3086 349.0426 11.8970 8.0989 324.6129 357.1088 354.4824 18.6849 6.1986 356.7635 350.6170 23.4786 1.5459 5.3387 0.0600 358.1995 27.6832 16.6677 356.8142 333.5332 338.6306 
2.9461 82.5264 101.8294 1.7174 355.5304 170.6904 2.0666 5.6067 4.4791 352.9997 10.1849 5.2040 2.9192 334.7096 1.3521 358.6242 358.3128 0.6498 341.1450 358.0789 10.9937 296.2922 10.1848 10.2585 15.3772 355.1295 324.9835 83.9747 359.3549 336.2367 20.2001 359.4290 356.7492 19.3783 45.6071 50.1779 328.5774 348.2186 40.5068 272.3354 348.8234 12.5169 8.1495 324.5122 357.1398 353.7473 20.1762 5.7023 357.3572 350.3779 23.9551 1.2628 5.5303 0.0481 357.9604 28.6071 16.7496 357.9878 333.6618 339.4494 
2.8787 82.4369 100.9207 1.6713 355.5820 170.4586 1.8556 5.4977 4.6050 353.0023 10.1034 5.3125 3.0297 334.5320 1.3048 358.6927 358.5683 0.5896 340.9976 358.1559 10.2681 296.2834 7.6922 10.4862 14.3970 355.6050 325.0490 83.9548 359.6060 335.0112 20.2480 359.4110 356.6429 20.0798 45.4167 49.3714 328.9159 348.4432 40.3062 272.5216 348.7427 12.9561 8.2654 324.5083 357.2977 353.2695 21.3234 5.2602 357.5311 350.2811 23.9315 1.0935 5.6125 359.9715 357.6030 29.4602 16.9827 359.0593 333.9363 340.0200 
2.6079 82.2654 98.8493 1.3479 355.5716 169.9837 1.3595 5.1572 4.8644 352.7114 10.0286 5.5640 3.2818 334.2142 1.2192 358.9614 359.0182 0.4416 340.8560 358.2104 9.8675 296.2675 6.1707 10.6007 14.0516 355.7471 325.6374 83.8060 359.7403 334.1970 20.3113 359.4003 356.6809 21.5576 45.2623 47.6435 329.0651 348.4757 40.4712 272.9506 348.5893 13.8107 7.9595 324.4137 358.1239 352.9060 23.8222 4.1190 357.9772 351.1866 24.8206 0.3494 5.6285 359.8172 356.9968 31.4020 17.2577 1.1168 334.6461 341.3393 
2.2980 82.1588 96.7295 0.8718 355.6098 169.6770 0.7144 4.8675 5.0274 352.4343 9.9844 5.7179 3.6930 333.6450 1.0659 358.9377 359.7119 0.1712 340.7958 358.3470 8.6719 296.7590 1.7429 11.3617 12.0390 356.6589 325.2721 84.3174 0.2002 331.2593 20.4145 359.3611 356.4684 23.2246 44.9870 45.8379 329.2997 348.5370 40.6599 273.3517 348.7211 14.5286 7.1907 324.4032 358.8043 352.9646 26.0201 3.4418 357.9526 352.7384 25.3013 359.4986 5.3742 359.6830 356.2794 33.8538 17.6371 3.3394 335.8093 342.4598 
2.1003 82.1790 95.1774 0.5587 355.7430 169.6372 0.2414 4.7677 5.0459 352.2846 10.0590 5.7348 3.9588 333.0372 0.9659 359.0525 0.2307 359.9920 340.8318 358.5534 7.2705 297.3206 356.1725 12.1881 9.3746 357.6932 324.3262 85.0802 0.7774 327.3377 20.4887 359.3304 356.1996 24.5657 44.7575 44.5049 329.5915 348.6520 40.5881 273.2790 348.9345 14.6922 6.6090 324.5655 358.6483 352.8837 27.3838 3.8065 357.7247 353.2549 24.7782 359.0783 4.9206 359.7930 355.7049 36.1812 17.3635 5.2340 337.3737 343.5138 
1.9274 82.2703 93.6417 0.3398 355.8658 169.7120 359.9224 4.6924 4.9861 352.0847 10.0925 5.6815 4.1484 332.7658 0.9263 359.3427 0.3727 359.9011 340.8313 358.7295 6.3895 297.5343 353.3925 12.4246 8.1072 357.9477 324.1948 85.5625 0.9927 325.1714 20.5927 359.2883 356.0405 25.9443 44.6956 43.1162 329.7434 348.7564 40.2522 273.0673 348.9884 14.5812 6.2720 324.8506 358.2348 352.1681 28.6008 4.0207 357.8250 353.4798 24.6256 358.8329 4.2611 0.2057 355.4672 38.8232 15.7600 5.1514 340.9004 344.4545 
1.7543 82.4076 92.1125 0.1516 355.9791 169.8669 359.7386 4.6778 4.8229 351.8203 9.9545 5.5231 4.1494 332.6860 0.8105 359.7797 0.4832 359.7869 340.7767 358.8700 5.7199 297.7168 351.9528 12.5091 7.5023 357.9652 324.3876 85.5519 1.2954 323.8717 20.6832 359.2812 356.1483 27.9545 44.5380 41.0379 330.0188 348.9525 39.9590 272.9228 348.7649 14.4593 5.9518 325.2410 358.0236 351.3699 29.7372 3.8108 357.7948 353.5498 24.9586 358.5962 3.3658 0.7984 355.8430 41.7158 12.7098 4.9177 343.8651 345.3603 
1.5714 82.5834 90.6037 359.9941 356.0818 170.0895 359.6838 4.6189 4.5836 351.5053 9.9513 5.3098 4.2308 332.4262 0.8190 0.0658 0.8561 359.7820 340.8148 358.9876 5.2772 297.7017 351.5678 12.2479 7.3002 357.8702 324.6873 85.2833 1.5785 322.9645 20.6435 359.3020 356.2979 30.3001 44.1962 38.7340 330.4782 349.2004 39.9226 272.4552 348.6063 14.7857 5.5339 325.7119 358.2704 351.0495 30.7611 3.3208 357.6059 353.5254 24.9975 358.3485 2.2277 1.2518 356.4151 44.8126 9.4229 3.8463 347.3217 346.1384 
1.3963 82.7874 89.1154 359.8961 356.2641 170.3684 359.6564 4.7075 4.3023 351.2854 9.8085 5.0363 4.4236 332.3303 0.9440 0.1087 1.2191 359.8654 340.9053 359.0976 4.7604 297.7860 350.8725 12.1722 6.7723 358.0212 324.7209 84.9080 1.8767 321.5526 20.5510 359.3427 356.5246 32.5274 43.8395 36.5604 331.2084 349.5972 39.6762 271.8214 348.5341 15.2381 5.1156 326.4170 358.4882 350.8315 31.5004 3.1302 359.3081 354.0778 23.4392 358.1526 1.0406 1.5415 357.0809 48.0446 6.1564 3.9545 350.7199 347.8633 
1.2197 83.0032 87.6413 359.8467 356.4732 170.6046 359.7074 4.8475 4.0005 351.0787 9.5865 4.7365 4.6134 332.3914 1.1409 0.1631 1.6056 0.0266 341.0307 359.2004 4.3134 297.8823 350.2836 12.1143 6.1485 358.2197 324.4934 84.5271 2.3244 320.1931 20.3936 359.4057 356.9183 35.0711 43.4336 33.9566 331.8952 349.8761 39.8620 271.6326 348.8692 16.1254 4.7980 327.3298 358.5884 350.5259 31.8901 3.5157 358.0440 353.5681 22.8061 358.0258 359.7215 1.6087 357.5336 51.3272 3.0368 4.0518 353.9009 349.3786 
1.0431 83.2315 86.1892 359.8025 356.6736 170.7478 359.9429 4.8867 3.5824 350.7275 9.5201 4.3530 4.6517 332.4546 1.3650 0.3452 1.9951 0.2509 341.2796 359.2868 4.0100 297.8545 349.4924 11.9547 5.3206 358.5223 324.0850 84.4160 2.8534 318.8494 20.4036 359.4588 357.2279 36.6665 42.9096 32.2638 333.0746 350.4295 39.8154 271.3686 349.2349 17.0431 4.6050 328.3636 358.8007 350.1530 32.0717 3.5148 357.8774 352.9355 22.6029 357.9200 358.2132 1.6369 357.7696 54.8366 1.1768 4.3342 356.4513 349.9911 
0.9342 83.4644 84.6396 359.8546 357.3361 171.0603 359.8831 5.2906 3.1914 350.8659 9.4751 3.9410 4.7334 332.6400 1.6001 0.3242 2.3136 0.4786 341.3559 359.3332 3.9361 297.6928 350.1061 11.5223 5.0712 358.5004 323.6535 84.3829 3.3203 318.5651 20.2909 359.5075 357.4335 38.0395 42.7165 30.7072 334.0461 350.8095 39.6907 271.5241 349.5596 17.9303 4.3464 330.0298 359.1418 350.0416 32.0803 3.0554 358.5360 352.6125 22.4265 357.8997 357.3276 1.7839 358.5917 58.0536 359.2939 1.6945 358.2148 349.8901 
0.7457 83.7192 83.2434 359.7082 357.3981 171.1948 359.7917 5.2107 2.8720 350.9619 9.2794 3.5924 4.7691 332.8567 1.8693 0.3990 2.5834 0.7055 341.3455 359.3134 4.1384 297.4601 352.0954 10.7213 5.4975 358.1997 323.4667 84.2206 3.5514 319.4227 20.2022 359.5412 357.5452 39.0316 42.7277 29.5099 334.9782 351.1832 39.4677 271.8845 349.7686 18.5618 3.8616 330.9588 359.7084 350.3786 32.2179 2.6325 358.8232 352.0455 22.0057 357.6960 355.5905 1.7536 359.1928 61.1583 357.8954 0.7766 359.4165 349.7042 
0.5380 84.0093 81.9080 359.6423 357.3766 171.4993 359.6980 5.2212 2.5802 351.2600 8.9074 3.2442 4.9800 333.0620 2.0171 0.0198 2.9042 0.8443 341.2014 359.3271 4.1197 297.3941 354.1403 10.1248 6.0270 357.9162 323.1437 84.3620 3.5565 320.5847 20.1056 359.5536 357.2922 39.8396 42.8361 28.4948 335.8770 351.5510 39.2020 272.1736 350.0464 18.6772 3.3331 331.8273 359.9820 350.7701 32.1871 2.3545 358.9871 351.4564 21.5360 357.6318 353.7181 1.3530 359.3859 64.0926 357.5664 0.1839 359.6107 348.5470 
0.3802 84.3102 80.5171 359.5950 357.6631 171.8585 359.5981 5.2949 2.2262 351.5020 8.8958 2.8658 5.3394 333.1888 2.2028 359.6164 3.2410 0.9410 341.1653 359.3108 4.2632 297.2423 356.9567 9.2068 7.1157 357.3679 322.9028 84.2354 3.3174 322.5659 20.0075 359.5231 357.1982 40.9678 42.8016 27.1542 336.6178 351.8203 39.0784 272.9533 349.9725 19.0707 2.7378 333.1873 0.2104 351.2328 31.8771 1.9631 359.1480 350.8296 21.2368 357.5906 352.2827 1.0294 359.8547 66.6131 356.9691 359.2826 358.7331 347.4360 
0.2076 84.6345 79.1487 359.6048 357.8210 172.1220 359.5130 5.3412 1.9821 351.8593 8.7317 2.5771 5.6244 333.3002 2.3807 359.3792 3.6157 1.0919 340.9924 359.2587 4.6886 297.2813 0.6164 8.2260 8.6148 356.6741 322.8833 84.0984 3.1029 325.3007 19.8821 359.4917 356.9353 41.9407 42.8996 25.9545 337.3956 352.1165 39.0130 273.6979 350.2551 19.7597 2.3511 334.6091 359.9905 351.3601 31.1482 1.5801 359.1122 350.5586 21.2281 357.5953 350.6831 0.9805 1.0276 68.7998 355.7785 357.2042 358.5240 346.4755 
